<svg xmlns="http://www.w3.org/2000/svg" viewBox="0 0 24 24" width="20" height="20">
  <defs><linearGradient id="g" x1="0" y1="0" x2="0" y2="1"><stop offset="0" stop-color="#f9a8d4"/><stop offset="1" stop-color="#ec4899"/></linearGradient></defs>
  <rect x="2" y="2" width="20" height="20" rx="5" fill="url(#g)"/>
  <rect x="2.5" y="2.5" width="19" height="8" rx="4.5" fill="#fff" opacity="0.15"/>
  <path d="M5 7 h14 a2 2 0 0 1 2 2 v5 a2 2 0 0 1 -2 2 h-7 l-4 3 v-3 h-3 a2 2 0 0 1 -2 -2 v-5 a2 2 0 0 1 2 -2 Z" fill="#fff"/>
  <circle cx="9" cy="11.5" r="1.1" fill="#ec4899"/>
  <circle cx="15" cy="11.5" r="1.1" fill="#ec4899"/>
</svg>
