<svg xmlns="http://www.w3.org/2000/svg" viewBox="0 0 24 24" width="24" height="24">
  <defs><linearGradient id="g" x1="0" y1="0" x2="0" y2="1"><stop offset="0" stop-color="#c4b5fd"/><stop offset="1" stop-color="#7c5cff"/></linearGradient></defs>
  <rect x="2" y="2" width="20" height="20" rx="5" fill="url(#g)"/>
  <rect x="2.5" y="2.5" width="19" height="8" rx="4.5" fill="#fff" opacity="0.16"/>
  <path d="M5 6 h9 a2.5 2.5 0 0 1 2.5 2.5 v2 a2.5 2.5 0 0 1 -2.5 2.5 h-3.5 v2.2 l-3 -2.2 h-2.5 a2.5 2.5 0 0 1 -2.5 -2.5 v-2 a2.5 2.5 0 0 1 2.5 -2.5 Z" fill="#fff"/>
  <circle cx="8.5" cy="10" r="1.1" fill="#7c5cff"/>
  <circle cx="11" cy="10" r="1.1" fill="#7c5cff"/>
  <circle cx="13.5" cy="10" r="1.1" fill="#7c5cff"/>
  <path d="M19.4 4.6 l0.5 1.3 l1.3 0.5 l-1.3 0.5 l-0.5 1.3 l-0.5 -1.3 l-1.3 -0.5 l1.3 -0.5 Z" fill="#5ce1e6"/>
</svg>
