<svg xmlns="http://www.w3.org/2000/svg" viewBox="0 0 24 24" width="24" height="24">
  <defs><linearGradient id="g" x1="0" y1="0" x2="0" y2="1"><stop offset="0" stop-color="#fcd34d"/><stop offset="1" stop-color="#f59e0b"/></linearGradient></defs>
  <rect x="2" y="2" width="20" height="20" rx="5" fill="url(#g)"/>
  <rect x="2.5" y="2.5" width="19" height="8" rx="4.5" fill="#fff" opacity="0.18"/>
  <path d="M14.5 5 A6 6 0 1 0 14.5 17 A4.6 4.6 0 1 1 14.5 5 Z" fill="#fff"/>
  <path d="M6.5 6 l0.5 1.2 l1.2 0.5 l-1.2 0.5 l-0.5 1.2 l-0.5 -1.2 l-1.2 -0.5 l1.2 -0.5 Z" fill="#fff" opacity="0.9"/>
  <path d="M18 7 l0.4 0.9 l0.9 0.4 l-0.9 0.4 l-0.4 0.9 l-0.4 -0.9 l-0.9 -0.4 l0.9 -0.4 Z" fill="#fff" opacity="0.75"/>
</svg>
